<?xml version="1.0" encoding="UTF-8"?>
<!DOCTYPE svg PUBLIC "-//W3C//DTD SVG 1.1//EN" "http://www.w3.org/Graphics/SVG/1.1/DTD/svg11.dtd">
<!-- Creator: CorelDRAW X7 -->
<svg xmlns="http://www.w3.org/2000/svg" xml:space="preserve" width="34.922mm" height="5.4884mm" version="1.1" shape-rendering="geometricPrecision" text-rendering="geometricPrecision" image-rendering="optimizeQuality" fill-rule="evenodd" clip-rule="evenodd"
viewBox="0 0 1113 175"
 xmlns:xlink="http://www.w3.org/1999/xlink">
 <g id="圖層_x0020_1">
  <metadata id="CorelCorpID_0Corel-Layer"/>
  <path fill="#234F2D" d="M67 23l979 0c36,0 66,34 66,76 0,42 -30,76 -66,76l-979 0c-36,0 -66,-34 -66,-76 0,-42 30,-76 66,-76z"/>
  <path fill="#FEFEFE" stroke="#56AAB7" stroke-width="2.42924" d="M67 1l979 0c36,0 66,34 66,76 0,42 -30,76 -66,76l-979 0c-36,0 -66,-34 -66,-76 0,-42 30,-76 66,-76z"/>
 </g>
</svg>
