<?xml version="1.0" encoding="UTF-8"?>
<!DOCTYPE svg PUBLIC "-//W3C//DTD SVG 1.1//EN" "http://www.w3.org/Graphics/SVG/1.1/DTD/svg11.dtd">
<!-- Creator: CorelDRAW X7 -->
<svg xmlns="http://www.w3.org/2000/svg" xml:space="preserve" width="38.8216mm" height="24.6643mm" version="1.1" shape-rendering="geometricPrecision" text-rendering="geometricPrecision" image-rendering="optimizeQuality" fill-rule="evenodd" clip-rule="evenodd"
viewBox="0 0 475 302"
 xmlns:xlink="http://www.w3.org/1999/xlink">
 <defs>
   <clipPath id="id0">
    <path d="M238 74c49,0 88,23 88,51 0,9 -4,18 -11,25 -2,-2 -4,-5 -6,-7 -2,-2 -6,-6 -10,-6 -8,0 -21,23 -25,29 -23,6 -45,5 -70,0 -1,-4 -18,-29 -25,-29 -5,0 -11,7 -17,15 -8,-8 -13,-17 -13,-27 0,-28 40,-51 89,-51z"/>
   </clipPath>
 </defs>
 <g id="圖層_x0020_1">
  <metadata id="CorelCorpID_0Corel-Layer"/>
  <path fill="#F08519" fill-rule="nonzero" d="M38 290c0,2 -1,2 -2,2 -2,0 -3,0 -3,-2l0 -22 -28 0 0 22c0,2 0,2 -2,2 -2,0 -3,0 -3,-2l0 -47c0,-2 1,-2 3,-2 2,0 2,0 2,2l0 20 28 0 0 -20c0,-2 1,-2 3,-2 1,0 2,0 2,2l0 47z"/>
  <path id="1" fill="#F08519" fill-rule="nonzero" d="M79 290c0,2 -1,2 -3,2 -1,0 -2,0 -2,-2l0 -3c-3,3 -6,5 -11,5 -4,0 -7,-1 -10,-4 -2,-2 -4,-6 -4,-12l0 -23c0,-1 1,-2 3,-2 2,0 2,1 2,2l0 23c0,8 3,11 9,11 3,0 6,-1 7,-3 3,-2 4,-5 4,-9l0 -22c0,-1 1,-2 2,-2 2,0 3,1 3,2l0 37z"/>
  <path id="2" fill="#F08519" fill-rule="nonzero" d="M119 290c0,2 -1,2 -3,2 -1,0 -2,0 -2,-2l0 -23c0,-8 -3,-11 -9,-11 -3,0 -6,1 -8,4 -2,3 -3,5 -3,8l0 22c0,2 -1,2 -3,2 -1,0 -2,0 -2,-2l0 -37c0,-1 1,-2 2,-2 2,0 3,1 3,2l0 4c2,-4 6,-6 11,-6 4,0 8,1 10,4 3,3 4,7 4,12l0 23z"/>
  <path id="3" fill="#F08519" fill-rule="nonzero" d="M290 290c0,2 0,2 -2,2 -2,0 -2,0 -2,-2l0 -22 -28 0 0 22c0,2 -1,2 -3,2 -1,0 -2,0 -2,-2l0 -47c0,-2 1,-2 2,-2 2,0 3,0 3,2l0 20 28 0 0 -20c0,-2 0,-2 2,-2 2,0 2,0 2,2l0 47z"/>
  <path id="4" fill="#F08519" fill-rule="nonzero" d="M331 290c0,2 -1,2 -2,2 -2,0 -3,0 -3,-2l0 -3c-2,3 -6,5 -10,5 -5,0 -8,-1 -10,-4 -3,-2 -4,-6 -4,-12l0 -23c0,-1 1,-2 2,-2 2,0 3,1 3,2l0 23c0,8 3,11 9,11 3,0 5,-1 7,-3 2,-2 3,-5 3,-9l0 -22c0,-1 1,-2 3,-2 1,0 2,1 2,2l0 37z"/>
  <path id="5" fill="#F08519" fill-rule="nonzero" d="M371 290c0,2 -1,2 -2,2 -2,0 -3,0 -3,-2l0 -23c0,-8 -3,-11 -9,-11 -3,0 -6,1 -8,4 -2,3 -3,5 -3,8l0 22c0,2 -1,2 -2,2 -2,0 -3,0 -3,-2l0 -37c0,-1 1,-2 3,-2 1,0 2,1 2,2l0 4c2,-4 6,-6 11,-6 5,0 9,1 11,4 2,3 3,7 3,12l0 23z"/>
  <path id="6" fill="#234F2D" fill-rule="nonzero" d="M158 286c0,4 -1,8 -3,11 -3,3 -7,5 -11,5 -5,0 -9,-2 -12,-4 -2,-1 -2,-3 -2,-4 0,0 0,-1 0,-1 1,-1 1,-1 2,-1 1,0 1,0 2,1 2,2 6,4 10,4 3,0 5,-1 7,-3 2,-2 3,-5 3,-8l0 -4c-2,2 -3,4 -5,5 -2,1 -4,2 -6,2 -4,0 -8,-2 -11,-5 -2,-4 -4,-8 -4,-14 0,-6 1,-11 4,-14 3,-3 7,-5 11,-5 2,0 4,1 6,2 2,1 3,2 5,4l0 -4c0,-1 0,-2 2,-2 2,0 2,1 2,2l0 33zm-5 -15c0,-5 -1,-9 -2,-11 -2,-3 -5,-4 -8,-4 -3,0 -5,1 -7,3 -2,2 -3,6 -3,11 0,4 1,8 3,11 2,2 4,3 7,3 3,0 5,-1 7,-3 2,-3 3,-6 3,-10z"/>
  <path id="7" fill="#234F2D" fill-rule="nonzero" d="M189 253c0,2 -1,3 -3,3 -3,0 -6,1 -9,5 -2,3 -4,6 -4,10l0 19c0,1 0,2 -2,2 -2,0 -2,0 -2,-2l0 -37c0,-1 0,-2 2,-2 2,0 2,1 2,2l0 6c4,-6 9,-8 13,-8 2,0 3,1 3,2z"/>
  <path id="8" fill="#234F2D" fill-rule="nonzero" d="M225 253c0,1 0,1 0,1l-14 39c-1,3 -2,5 -3,6 -2,2 -4,3 -7,3l-4 0c-2,0 -3,-1 -3,-3 0,-1 1,-2 3,-2l4 0c2,0 3,-1 4,-1 0,-1 1,-2 2,-5l1 -4 -11 -33c-1,0 -1,0 -1,-1 0,0 1,-1 1,-1 1,-1 1,-1 2,-1 1,0 2,0 2,2l10 27 9 -27c1,-1 2,-2 3,-2 0,0 1,0 1,1 1,0 1,1 1,1z"/>
  <path id="9" fill="#234F2D" fill-rule="nonzero" d="M403 290c0,1 -1,2 -2,2l-3 0c-7,0 -11,-3 -11,-10l0 -23 -5 0c-2,0 -3,-1 -3,-2 0,-2 1,-3 3,-3l5 0 0 -11c0,-2 1,-2 3,-2 2,0 2,0 2,2l0 11 7 0c2,0 3,1 3,3 0,1 -1,2 -3,2l-7 0 0 23c0,2 1,3 2,4 1,1 2,1 4,1l3 0c1,0 2,1 2,3z"/>
  <path id="10" fill="#234F2D" fill-rule="nonzero" d="M445 280c0,1 0,2 -1,3 -3,6 -9,9 -15,9 -6,0 -10,-2 -13,-5 -3,-4 -5,-9 -5,-15 0,-6 2,-11 5,-15 3,-4 7,-6 13,-6 5,0 9,2 12,5 3,4 4,7 4,11 0,4 -2,6 -6,6l-23 0c0,4 1,8 4,11 2,2 5,3 9,3 5,0 9,-2 12,-8 0,-1 1,-1 2,-1 0,0 1,0 2,1 0,0 0,1 0,1zm-5 -13c0,-3 -1,-5 -3,-7 -2,-3 -5,-4 -8,-4 -4,0 -7,1 -9,3 -2,3 -3,5 -4,9l22 0c1,0 2,-1 2,-1z"/>
  <path id="11" fill="#234F2D" fill-rule="nonzero" d="M475 253c0,2 -1,3 -3,3 -3,0 -6,1 -8,5 -3,3 -4,6 -4,10l0 19c0,1 -1,2 -3,2 -1,0 -2,0 -2,-2l0 -37c0,-1 1,-2 2,-2 2,0 3,1 3,2l0 6c4,-6 8,-8 13,-8 1,0 2,1 2,2z"/>
  <path id="12" fill="none" fill-rule="nonzero" stroke="#F08519" stroke-width="0.933241" d="M38 290c0,2 -1,2 -2,2 -2,0 -3,0 -3,-2l0 -22 -28 0 0 22c0,2 0,2 -2,2 -2,0 -3,0 -3,-2l0 -47c0,-2 1,-2 3,-2 2,0 2,0 2,2l0 20 28 0 0 -20c0,-2 1,-2 3,-2 1,0 2,0 2,2l0 47z"/>
  <path id="13" fill="none" fill-rule="nonzero" stroke="#F08519" stroke-width="0.933241" d="M79 290c0,2 -1,2 -3,2 -1,0 -2,0 -2,-2l0 -3c-3,3 -6,5 -11,5 -4,0 -7,-1 -10,-4 -2,-2 -4,-6 -4,-12l0 -23c0,-1 1,-2 3,-2 2,0 2,1 2,2l0 23c0,8 3,11 9,11 3,0 6,-1 7,-3 3,-2 4,-5 4,-9l0 -22c0,-1 1,-2 2,-2 2,0 3,1 3,2l0 37z"/>
  <path id="14" fill="none" fill-rule="nonzero" stroke="#F08519" stroke-width="0.933241" d="M119 290c0,2 -1,2 -3,2 -1,0 -2,0 -2,-2l0 -23c0,-8 -3,-11 -9,-11 -3,0 -6,1 -8,4 -2,3 -3,5 -3,8l0 22c0,2 -1,2 -3,2 -1,0 -2,0 -2,-2l0 -37c0,-1 1,-2 2,-2 2,0 3,1 3,2l0 4c2,-4 6,-6 11,-6 4,0 8,1 10,4 3,3 4,7 4,12l0 23z"/>
  <path id="15" fill="none" fill-rule="nonzero" stroke="#F08519" stroke-width="0.933241" d="M290 290c0,2 0,2 -2,2 -2,0 -2,0 -2,-2l0 -22 -28 0 0 22c0,2 -1,2 -3,2 -1,0 -2,0 -2,-2l0 -47c0,-2 1,-2 2,-2 2,0 3,0 3,2l0 20 28 0 0 -20c0,-2 0,-2 2,-2 2,0 2,0 2,2l0 47z"/>
  <path id="16" fill="none" fill-rule="nonzero" stroke="#F08519" stroke-width="0.933241" d="M331 290c0,2 -1,2 -2,2 -2,0 -3,0 -3,-2l0 -3c-2,3 -6,5 -10,5 -5,0 -8,-1 -10,-4 -3,-2 -4,-6 -4,-12l0 -23c0,-1 1,-2 2,-2 2,0 3,1 3,2l0 23c0,8 3,11 9,11 3,0 5,-1 7,-3 2,-2 3,-5 3,-9l0 -22c0,-1 1,-2 3,-2 1,0 2,1 2,2l0 37z"/>
  <path id="17" fill="none" fill-rule="nonzero" stroke="#F08519" stroke-width="0.933241" d="M371 290c0,2 -1,2 -2,2 -2,0 -3,0 -3,-2l0 -23c0,-8 -3,-11 -9,-11 -3,0 -6,1 -8,4 -2,3 -3,5 -3,8l0 22c0,2 -1,2 -2,2 -2,0 -3,0 -3,-2l0 -37c0,-1 1,-2 3,-2 1,0 2,1 2,2l0 4c2,-4 6,-6 11,-6 5,0 9,1 11,4 2,3 3,7 3,12l0 23z"/>
  <path id="18" fill="none" fill-rule="nonzero" stroke="#234F2D" stroke-width="0.933241" d="M158 286c0,4 -1,8 -3,11 -3,3 -7,5 -11,5 -5,0 -9,-2 -12,-4 -2,-1 -2,-3 -2,-4 0,0 0,-1 0,-1 1,-1 1,-1 2,-1 1,0 1,0 2,1 2,2 6,4 10,4 3,0 5,-1 7,-3 2,-2 3,-5 3,-8l0 -4c-2,2 -3,4 -5,5 -2,1 -4,2 -6,2 -4,0 -8,-2 -11,-5 -2,-4 -4,-8 -4,-14 0,-6 1,-11 4,-14 3,-3 7,-5 11,-5 2,0 4,1 6,2 2,1 3,2 5,4l0 -4c0,-1 0,-2 2,-2 2,0 2,1 2,2l0 33zm-5 -15c0,-5 -1,-9 -2,-11 -2,-3 -5,-4 -8,-4 -3,0 -5,1 -7,3 -2,2 -3,6 -3,11 0,4 1,8 3,11 2,2 4,3 7,3 3,0 5,-1 7,-3 2,-3 3,-6 3,-10z"/>
  <path id="19" fill="none" fill-rule="nonzero" stroke="#234F2D" stroke-width="0.933241" d="M189 253c0,2 -1,3 -3,3 -3,0 -6,1 -9,5 -2,3 -4,6 -4,10l0 19c0,1 0,2 -2,2 -2,0 -2,0 -2,-2l0 -37c0,-1 0,-2 2,-2 2,0 2,1 2,2l0 6c4,-6 9,-8 13,-8 2,0 3,1 3,2z"/>
  <path id="20" fill="none" fill-rule="nonzero" stroke="#234F2D" stroke-width="0.933241" d="M225 253c0,1 0,1 0,1l-14 39c-1,3 -2,5 -3,6 -2,2 -4,3 -7,3l-4 0c-2,0 -3,-1 -3,-3 0,-1 1,-2 3,-2l4 0c2,0 3,-1 4,-1 0,-1 1,-2 2,-5l1 -4 -11 -33c-1,0 -1,0 -1,-1 0,0 1,-1 1,-1 1,-1 1,-1 2,-1 1,0 2,0 2,2l10 27 9 -27c1,-1 2,-2 3,-2 0,0 1,0 1,1 1,0 1,1 1,1z"/>
  <path id="21" fill="none" fill-rule="nonzero" stroke="#234F2D" stroke-width="0.933241" d="M403 290c0,1 -1,2 -2,2l-3 0c-7,0 -11,-3 -11,-10l0 -23 -5 0c-2,0 -3,-1 -3,-2 0,-2 1,-3 3,-3l5 0 0 -11c0,-2 1,-2 3,-2 2,0 2,0 2,2l0 11 7 0c2,0 3,1 3,3 0,1 -1,2 -3,2l-7 0 0 23c0,2 1,3 2,4 1,1 2,1 4,1l3 0c1,0 2,1 2,3z"/>
  <path id="22" fill="none" fill-rule="nonzero" stroke="#234F2D" stroke-width="0.933241" d="M445 280c0,1 0,2 -1,3 -3,6 -9,9 -15,9 -6,0 -10,-2 -13,-5 -3,-4 -5,-9 -5,-15 0,-6 2,-11 5,-15 3,-4 7,-6 13,-6 5,0 9,2 12,5 3,4 4,7 4,11 0,4 -2,6 -6,6l-23 0c0,4 1,8 4,11 2,2 5,3 9,3 5,0 9,-2 12,-8 0,-1 1,-1 2,-1 0,0 1,0 2,1 0,0 0,1 0,1zm-5 -13c0,-3 -1,-5 -3,-7 -2,-3 -5,-4 -8,-4 -4,0 -7,1 -9,3 -2,3 -3,5 -4,9l22 0c1,0 2,-1 2,-1z"/>
  <path id="23" fill="none" fill-rule="nonzero" stroke="#234F2D" stroke-width="0.933241" d="M475 253c0,2 -1,3 -3,3 -3,0 -6,1 -8,5 -3,3 -4,6 -4,10l0 19c0,1 -1,2 -3,2 -1,0 -2,0 -2,-2l0 -37c0,-1 1,-2 2,-2 2,0 3,1 3,2l0 6c4,-6 8,-8 13,-8 1,0 2,1 2,2z"/>
  <path fill="#234F2D" stroke="#FEFEFE" stroke-width="2.44945" d="M171 89c-8,-7 -21,-18 -23,-23 -3,-8 -14,-9 -15,1 0,8 13,26 21,36 4,-5 10,-10 17,-14z"/>
  <path fill="none" stroke="#234F2D" stroke-width="6.12363" d="M238 3c29,0 52,19 52,43 0,9 -4,18 -11,25 -12,-4 -26,-6 -41,-6 -15,0 -30,2 -42,6 -7,-7 -10,-16 -10,-25 0,-24 23,-43 52,-43z"/>
  <path fill="#234F2D" stroke="#FEFEFE" stroke-width="2.44945" d="M304 87c9,-6 21,-17 23,-22 3,-8 14,-9 15,1 1,7 -13,25 -21,36 -4,-5 -10,-10 -17,-15z"/>
  <g>
  </g>
  <g clip-path="url(#id0)">
   <g>
    <path fill="#F08519" d="M151 142c-2,-1 19,7 45,8 26,1 51,-8 63,-10 18,-3 45,-1 66,10 7,5 -7,30 -27,40 -32,16 -84,18 -117,0 -44,-23 -24,-49 -30,-48z"/>
   </g>
  </g>
  <path fill="none" stroke="#234F2D" stroke-width="6.12363" d="M238 74c49,0 88,23 88,51 0,9 -4,18 -11,25 -2,-2 -4,-5 -6,-7 -2,-2 -6,-6 -10,-6 -8,0 -21,23 -25,29 -23,6 -45,5 -70,0 -1,-4 -18,-29 -25,-29 -5,0 -11,7 -17,15 -8,-8 -13,-17 -13,-27 0,-28 40,-51 89,-51z"/>
  <path fill="#F08519" stroke="#FEFEFE" stroke-width="3.06181" d="M153 175c0,5 7,16 9,20 3,4 11,14 17,14 5,0 12,-9 15,-13 5,-6 7,-11 10,-16 26,6 47,6 70,0 1,4 18,29 25,29 6,0 13,-9 17,-14 12,-18 12,-23 -1,-41 -1,-3 -4,-6 -6,-8 -2,-2 -6,-6 -10,-6 -8,0 -21,23 -25,29 -23,6 -45,5 -70,0 -1,-4 -18,-29 -25,-29 -9,0 -26,27 -26,35z"/>
 </g>
</svg>
