<?xml version="1.0" encoding="UTF-8"?>
<!DOCTYPE svg PUBLIC "-//W3C//DTD SVG 1.1//EN" "http://www.w3.org/Graphics/SVG/1.1/DTD/svg11.dtd">
<!-- Creator: CorelDRAW X7 -->
<svg xmlns="http://www.w3.org/2000/svg" xml:space="preserve" width="38.8216mm" height="24.6643mm" version="1.1" shape-rendering="geometricPrecision" text-rendering="geometricPrecision" image-rendering="optimizeQuality" fill-rule="evenodd" clip-rule="evenodd"
viewBox="0 0 833 529"
 xmlns:xlink="http://www.w3.org/1999/xlink">
 <g id="圖層_x0020_1">
  <metadata id="CorelCorpID_0Corel-Layer"/>
  <path fill="#F08519" fill-rule="nonzero" d="M67 508c0,3 -2,4 -5,4 -2,0 -4,-1 -4,-4l0 -39 -49 0 0 39c0,3 -1,4 -4,4 -3,0 -4,-1 -4,-4l0 -83c0,-2 1,-4 4,-4 3,0 4,2 4,4l0 35 49 0 0 -35c0,-2 2,-4 5,-4 2,0 4,2 4,4l0 83z"/>
  <path id="1" fill="#F08519" fill-rule="nonzero" d="M138 508c0,2 -2,4 -5,4 -2,0 -4,-2 -4,-4l0 -6c-4,7 -11,10 -18,10 -8,0 -13,-2 -18,-7 -4,-5 -6,-12 -6,-21l0 -40c0,-3 1,-5 4,-5 3,0 4,2 4,5l0 40c0,13 5,19 16,19 5,0 9,-1 12,-5 4,-4 6,-9 6,-16l0 -38c0,-3 1,-5 4,-5 3,0 5,2 5,5l0 64z"/>
  <path id="2" fill="#F08519" fill-rule="nonzero" d="M208 508c0,2 -2,4 -4,4 -3,0 -5,-2 -5,-4l0 -41c0,-13 -5,-19 -16,-19 -5,0 -10,2 -14,7 -3,5 -5,9 -5,14l0 39c0,2 -2,4 -4,4 -3,0 -5,-2 -5,-4l0 -64c0,-3 2,-5 5,-5 2,0 4,2 4,5l0 7c4,-8 11,-12 19,-12 9,0 15,3 19,8 4,5 6,12 6,20l0 41z"/>
  <path id="3" fill="#F08519" fill-rule="nonzero" d="M509 508c0,3 -2,4 -5,4 -2,0 -4,-1 -4,-4l0 -39 -49 0 0 39c0,3 -1,4 -4,4 -3,0 -4,-1 -4,-4l0 -83c0,-2 1,-4 4,-4 3,0 4,2 4,4l0 35 49 0 0 -35c0,-2 2,-4 5,-4 2,0 4,2 4,4l0 83z"/>
  <path id="4" fill="#F08519" fill-rule="nonzero" d="M580 508c0,2 -2,4 -5,4 -2,0 -4,-2 -4,-4l0 -6c-4,7 -11,10 -18,10 -8,0 -13,-2 -18,-7 -4,-5 -6,-12 -6,-21l0 -40c0,-3 1,-5 4,-5 3,0 4,2 4,5l0 40c0,13 5,19 16,19 5,0 9,-1 12,-5 4,-4 6,-9 6,-16l0 -38c0,-3 1,-5 4,-5 3,0 5,2 5,5l0 64z"/>
  <path id="5" fill="#F08519" fill-rule="nonzero" d="M650 508c0,2 -2,4 -4,4 -3,0 -5,-2 -5,-4l0 -41c0,-13 -5,-19 -16,-19 -5,0 -10,2 -14,7 -3,5 -5,9 -5,14l0 39c0,2 -2,4 -4,4 -3,0 -5,-2 -5,-4l0 -64c0,-3 2,-5 5,-5 2,0 4,2 4,5l0 7c4,-8 11,-12 19,-12 9,0 15,3 19,8 4,5 6,12 6,20l0 41z"/>
  <path id="6" fill="#234F2D" fill-rule="nonzero" d="M277 501c0,7 -2,14 -6,19 -5,5 -11,8 -20,8 -8,0 -14,-2 -20,-6 -3,-3 -4,-5 -4,-7 0,-1 0,-2 1,-2 1,-1 2,-2 3,-2 1,0 2,1 4,2 4,4 9,6 16,6 6,0 10,-1 13,-5 3,-3 5,-8 5,-13l0 -7c-2,4 -5,6 -8,8 -3,2 -7,3 -11,3 -7,0 -13,-3 -18,-8 -5,-6 -8,-15 -8,-25 0,-10 3,-18 7,-24 5,-6 12,-9 19,-9 4,0 8,1 11,4 3,1 6,4 8,7l0 -6c0,-3 1,-5 4,-5 3,0 4,2 4,5l0 57zm-8 -27c0,-8 -2,-15 -5,-19 -4,-5 -8,-7 -14,-7 -5,0 -9,2 -12,6 -3,4 -5,10 -5,18 0,9 2,15 6,19 3,4 6,6 11,6 5,0 9,-2 13,-6 4,-4 6,-10 6,-17z"/>
  <path id="7" fill="#234F2D" fill-rule="nonzero" d="M331 443c0,3 -2,5 -5,5 -5,0 -11,3 -15,8 -5,6 -7,12 -7,19l0 33c0,2 -2,4 -5,4 -2,0 -4,-2 -4,-4l0 -64c0,-3 1,-5 4,-5 3,0 5,2 5,5l0 9c7,-9 14,-14 22,-14 3,0 5,2 5,4z"/>
  <path id="8" fill="#234F2D" fill-rule="nonzero" d="M394 444c0,0 0,1 0,1l-24 68c-2,5 -4,9 -6,11 -3,3 -7,4 -11,4l-8 0c-3,0 -5,-1 -5,-4 0,-3 2,-5 5,-5l8 0c2,0 4,0 5,-1 1,-1 3,-4 4,-8l3 -7 -21 -58c0,0 0,-1 0,-1 0,-1 0,-3 1,-3 1,-1 2,-2 3,-2 2,0 3,1 4,3l17 48 17 -48c1,-2 2,-3 4,-3 1,0 2,1 3,2 1,1 1,2 1,3z"/>
  <path id="9" fill="#234F2D" fill-rule="nonzero" d="M706 507c0,3 -2,5 -5,5l-4 0c-13,0 -19,-6 -19,-18l0 -40 -9 0c-3,0 -5,-1 -5,-4 0,-3 2,-5 5,-5l9 0 0 -20c0,-2 2,-4 5,-4 3,0 4,2 4,4l0 20 12 0c3,0 4,2 4,5 0,3 -1,4 -4,4l-12 0 0 40c0,3 1,6 2,7 2,2 4,2 8,2l4 0c3,0 5,2 5,4z"/>
  <path id="10" fill="#234F2D" fill-rule="nonzero" d="M780 491c0,1 -1,2 -2,4 -7,11 -16,17 -27,17 -10,0 -17,-3 -23,-10 -6,-7 -8,-15 -8,-26 0,-10 2,-19 8,-26 6,-7 13,-11 22,-11 9,0 16,3 22,10 5,6 7,12 7,19 0,6 -3,9 -10,9l-41 0c0,9 3,15 7,20 4,4 9,6 16,6 9,0 16,-4 21,-14 0,-2 2,-2 3,-2 1,0 2,0 3,1 1,1 2,2 2,3zm-10 -24c0,-4 -1,-9 -5,-12 -3,-5 -8,-7 -15,-7 -6,0 -11,2 -14,6 -4,4 -6,9 -7,15l38 0c2,0 3,-1 3,-2z"/>
  <path id="11" fill="#234F2D" fill-rule="nonzero" d="M832 443c0,3 -2,5 -5,5 -5,0 -10,3 -15,8 -5,6 -7,12 -7,19l0 33c0,2 -2,4 -4,4 -3,0 -5,-2 -5,-4l0 -64c0,-3 2,-5 4,-5 3,0 5,2 5,5l0 9c7,-9 14,-14 22,-14 3,0 5,2 5,4z"/>
  <path id="12" fill="none" fill-rule="nonzero" stroke="#F08519" stroke-width="1.63406" d="M67 508c0,3 -2,4 -5,4 -2,0 -4,-1 -4,-4l0 -39 -49 0 0 39c0,3 -1,4 -4,4 -3,0 -4,-1 -4,-4l0 -83c0,-2 1,-4 4,-4 3,0 4,2 4,4l0 35 49 0 0 -35c0,-2 2,-4 5,-4 2,0 4,2 4,4l0 83z"/>
  <path id="13" fill="none" fill-rule="nonzero" stroke="#F08519" stroke-width="1.63406" d="M138 508c0,2 -2,4 -5,4 -2,0 -4,-2 -4,-4l0 -6c-4,7 -11,10 -18,10 -8,0 -13,-2 -18,-7 -4,-5 -6,-12 -6,-21l0 -40c0,-3 1,-5 4,-5 3,0 4,2 4,5l0 40c0,13 5,19 16,19 5,0 9,-1 12,-5 4,-4 6,-9 6,-16l0 -38c0,-3 1,-5 4,-5 3,0 5,2 5,5l0 64z"/>
  <path id="14" fill="none" fill-rule="nonzero" stroke="#F08519" stroke-width="1.63406" d="M208 508c0,2 -2,4 -4,4 -3,0 -5,-2 -5,-4l0 -41c0,-13 -5,-19 -16,-19 -5,0 -10,2 -14,7 -3,5 -5,9 -5,14l0 39c0,2 -2,4 -4,4 -3,0 -5,-2 -5,-4l0 -64c0,-3 2,-5 5,-5 2,0 4,2 4,5l0 7c4,-8 11,-12 19,-12 9,0 15,3 19,8 4,5 6,12 6,20l0 41z"/>
  <path id="15" fill="none" fill-rule="nonzero" stroke="#F08519" stroke-width="1.63406" d="M509 508c0,3 -2,4 -5,4 -2,0 -4,-1 -4,-4l0 -39 -49 0 0 39c0,3 -1,4 -4,4 -3,0 -4,-1 -4,-4l0 -83c0,-2 1,-4 4,-4 3,0 4,2 4,4l0 35 49 0 0 -35c0,-2 2,-4 5,-4 2,0 4,2 4,4l0 83z"/>
  <path id="16" fill="none" fill-rule="nonzero" stroke="#F08519" stroke-width="1.63406" d="M580 508c0,2 -2,4 -5,4 -2,0 -4,-2 -4,-4l0 -6c-4,7 -11,10 -18,10 -8,0 -13,-2 -18,-7 -4,-5 -6,-12 -6,-21l0 -40c0,-3 1,-5 4,-5 3,0 4,2 4,5l0 40c0,13 5,19 16,19 5,0 9,-1 12,-5 4,-4 6,-9 6,-16l0 -38c0,-3 1,-5 4,-5 3,0 5,2 5,5l0 64z"/>
  <path id="17" fill="none" fill-rule="nonzero" stroke="#F08519" stroke-width="1.63406" d="M650 508c0,2 -2,4 -4,4 -3,0 -5,-2 -5,-4l0 -41c0,-13 -5,-19 -16,-19 -5,0 -10,2 -14,7 -3,5 -5,9 -5,14l0 39c0,2 -2,4 -4,4 -3,0 -5,-2 -5,-4l0 -64c0,-3 2,-5 5,-5 2,0 4,2 4,5l0 7c4,-8 11,-12 19,-12 9,0 15,3 19,8 4,5 6,12 6,20l0 41z"/>
  <path id="18" fill="none" fill-rule="nonzero" stroke="#234F2D" stroke-width="1.63406" d="M277 501c0,7 -2,14 -6,19 -5,5 -11,8 -20,8 -8,0 -14,-2 -20,-6 -3,-3 -4,-5 -4,-7 0,-1 0,-2 1,-2 1,-1 2,-2 3,-2 1,0 2,1 4,2 4,4 9,6 16,6 6,0 10,-1 13,-5 3,-3 5,-8 5,-13l0 -7c-2,4 -5,6 -8,8 -3,2 -7,3 -11,3 -7,0 -13,-3 -18,-8 -5,-6 -8,-15 -8,-25 0,-10 3,-18 7,-24 5,-6 12,-9 19,-9 4,0 8,1 11,4 3,1 6,4 8,7l0 -6c0,-3 1,-5 4,-5 3,0 4,2 4,5l0 57zm-8 -27c0,-8 -2,-15 -5,-19 -4,-5 -8,-7 -14,-7 -5,0 -9,2 -12,6 -3,4 -5,10 -5,18 0,9 2,15 6,19 3,4 6,6 11,6 5,0 9,-2 13,-6 4,-4 6,-10 6,-17z"/>
  <path id="19" fill="none" fill-rule="nonzero" stroke="#234F2D" stroke-width="1.63406" d="M331 443c0,3 -2,5 -5,5 -5,0 -11,3 -15,8 -5,6 -7,12 -7,19l0 33c0,2 -2,4 -5,4 -2,0 -4,-2 -4,-4l0 -64c0,-3 1,-5 4,-5 3,0 5,2 5,5l0 9c7,-9 14,-14 22,-14 3,0 5,2 5,4z"/>
  <path id="20" fill="none" fill-rule="nonzero" stroke="#234F2D" stroke-width="1.63406" d="M394 444c0,0 0,1 0,1l-24 68c-2,5 -4,9 -6,11 -3,3 -7,4 -11,4l-8 0c-3,0 -5,-1 -5,-4 0,-3 2,-5 5,-5l8 0c2,0 4,0 5,-1 1,-1 3,-4 4,-8l3 -7 -21 -58c0,0 0,-1 0,-1 0,-1 0,-3 1,-3 1,-1 2,-2 3,-2 2,0 3,1 4,3l17 48 17 -48c1,-2 2,-3 4,-3 1,0 2,1 3,2 1,1 1,2 1,3z"/>
  <path id="21" fill="none" fill-rule="nonzero" stroke="#234F2D" stroke-width="1.63406" d="M706 507c0,3 -2,5 -5,5l-4 0c-13,0 -19,-6 -19,-18l0 -40 -9 0c-3,0 -5,-1 -5,-4 0,-3 2,-5 5,-5l9 0 0 -20c0,-2 2,-4 5,-4 3,0 4,2 4,4l0 20 12 0c3,0 4,2 4,5 0,3 -1,4 -4,4l-12 0 0 40c0,3 1,6 2,7 2,2 4,2 8,2l4 0c3,0 5,2 5,4z"/>
  <path id="22" fill="none" fill-rule="nonzero" stroke="#234F2D" stroke-width="1.63406" d="M780 491c0,1 -1,2 -2,4 -7,11 -16,17 -27,17 -10,0 -17,-3 -23,-10 -6,-7 -8,-15 -8,-26 0,-10 2,-19 8,-26 6,-7 13,-11 22,-11 9,0 16,3 22,10 5,6 7,12 7,19 0,6 -3,9 -10,9l-41 0c0,9 3,15 7,20 4,4 9,6 16,6 9,0 16,-4 21,-14 0,-2 2,-2 3,-2 1,0 2,0 3,1 1,1 2,2 2,3zm-10 -24c0,-4 -1,-9 -5,-12 -3,-5 -8,-7 -15,-7 -6,0 -11,2 -14,6 -4,4 -6,9 -7,15l38 0c2,0 3,-1 3,-2z"/>
  <path id="23" fill="none" fill-rule="nonzero" stroke="#234F2D" stroke-width="1.63406" d="M832 443c0,3 -2,5 -5,5 -5,0 -10,3 -15,8 -5,6 -7,12 -7,19l0 33c0,2 -2,4 -4,4 -3,0 -5,-2 -5,-4l0 -64c0,-3 2,-5 4,-5 3,0 5,2 5,5l0 9c7,-9 14,-14 22,-14 3,0 5,2 5,4z"/>
  <path fill="#234F2D" stroke="#FEFEFE" stroke-width="4.28886" d="M299 155c-14,-11 -37,-30 -40,-40 -5,-14 -25,-14 -26,3 -1,12 22,44 37,63 7,-9 17,-18 29,-26z"/>
  <path fill="none" stroke="#234F2D" stroke-width="10.7221" d="M416 5c51,0 92,34 92,75 0,17 -7,32 -19,44 -21,-6 -46,-10 -73,-10 -26,0 -51,4 -73,10 -11,-12 -18,-27 -18,-44 0,-41 41,-75 91,-75z"/>
  <path fill="#234F2D" stroke="#FEFEFE" stroke-width="4.28886" d="M533 153c14,-11 37,-30 40,-40 5,-14 25,-15 26,3 1,12 -22,44 -37,63 -7,-10 -17,-18 -29,-26z"/>
  <path fill="#F08519" d="M264 204c-4,-1 33,13 78,14 45,2 89,-13 111,-17 31,-6 79,-2 114,19 14,8 -11,51 -46,68 -57,28 -146,32 -204,1 -77,-41 -43,-86 -53,-85z"/>
  <path fill="none" stroke="#234F2D" stroke-width="10.7221" d="M416 130c86,0 155,40 155,89 0,16 -7,31 -20,44 -3,-5 -7,-9 -11,-13 -3,-4 -10,-10 -16,-10 -14,0 -38,40 -44,51 -41,11 -78,9 -123,0 -2,-7 -31,-51 -44,-51 -8,0 -20,12 -29,25 -14,-13 -22,-29 -22,-46 0,-49 69,-89 154,-89z"/>
  <path fill="#F08519" stroke="#FEFEFE" stroke-width="5.36107" d="M267 306c0,10 13,28 17,35 6,8 18,25 29,25 9,0 21,-15 26,-22 9,-12 13,-20 19,-30 44,12 82,11 122,0 2,8 31,52 43,52 12,0 23,-16 29,-24 23,-33 22,-41 0,-73 -3,-5 -8,-10 -12,-14 -3,-4 -10,-10 -16,-10 -14,0 -38,40 -44,51 -41,11 -78,9 -123,0 -2,-7 -31,-51 -44,-51 -16,0 -46,47 -46,61z"/>
  <path fill="none" stroke="#234F2D" stroke-width="10.7221" d="M416 130c86,0 155,40 155,89 0,16 -7,31 -20,44 -3,-5 -7,-9 -11,-13 -3,-4 -10,-10 -16,-10 -14,0 -38,40 -44,51 -41,11 -78,9 -123,0 -2,-7 -31,-51 -44,-51 -8,0 -20,12 -29,25 -14,-13 -22,-29 -22,-46 0,-49 69,-89 154,-89z"/>
 </g>
</svg>
