<?xml version="1.0" encoding="UTF-8"?>
<!DOCTYPE svg PUBLIC "-//W3C//DTD SVG 1.1//EN" "http://www.w3.org/Graphics/SVG/1.1/DTD/svg11.dtd">
<!-- Creator: CorelDRAW X7 -->
<svg xmlns="http://www.w3.org/2000/svg" xml:space="preserve" width="38.8216mm" height="24.6643mm" version="1.1" shape-rendering="geometricPrecision" text-rendering="geometricPrecision" image-rendering="optimizeQuality" fill-rule="evenodd" clip-rule="evenodd"
viewBox="0 0 3218 2044"
 xmlns:xlink="http://www.w3.org/1999/xlink">
 <defs>
   <clipPath id="id0">
    <path d="M1609 503c330,0 598,155 598,345 0,61 -28,118 -76,168 -12,-17 -28,-36 -43,-50 -13,-14 -40,-39 -63,-39 -54,0 -146,154 -171,199 -156,41 -302,34 -476,0 -6,-28 -117,-199 -166,-199 -33,0 -78,46 -115,99 -54,-52 -85,-113 -85,-178 0,-190 267,-345 597,-345z"/>
   </clipPath>
 </defs>
 <g id="圖層_x0020_1">
  <metadata id="CorelCorpID_0Corel-Layer"/>
  <path fill="#F08519" fill-rule="nonzero" d="M257 1962c0,11 -5,17 -16,17 -11,0 -17,-6 -17,-17l0 -150 -188 0 0 150c0,11 -5,17 -16,17 -11,0 -17,-6 -17,-17l0 -318c0,-10 6,-16 17,-16 11,0 16,6 16,16l0 135 188 0 0 -135c0,-10 6,-16 18,-16 10,0 15,6 15,16l0 318z"/>
  <path id="1" fill="#F08519" fill-rule="nonzero" d="M532 1962c0,11 -5,17 -16,17 -11,0 -17,-6 -17,-17l0 -22c-18,26 -41,39 -71,39 -29,0 -51,-9 -67,-27 -17,-18 -26,-45 -26,-81l0 -156c0,-12 5,-17 16,-17 12,0 17,5 17,17l0 156c0,49 20,74 60,74 20,0 36,-6 49,-20 15,-15 22,-35 22,-62l0 -148c0,-12 5,-17 16,-17 11,0 17,5 17,17l0 247z"/>
  <path id="2" fill="#F08519" fill-rule="nonzero" d="M803 1962c0,11 -5,17 -16,17 -11,0 -17,-6 -17,-17l0 -158c0,-49 -21,-73 -62,-73 -21,0 -39,10 -54,29 -14,17 -20,35 -20,52l0 150c0,11 -6,17 -17,17 -11,0 -17,-6 -17,-17l0 -247c0,-11 6,-16 17,-16 11,0 17,5 17,16l0 26c16,-29 41,-43 74,-43 33,0 57,10 73,31 15,18 22,43 22,75l0 158z"/>
  <path id="3" fill="#F08519" fill-rule="nonzero" d="M1966 1962c0,11 -6,17 -16,17 -12,0 -17,-6 -17,-17l0 -150 -188 0 0 150c0,11 -6,17 -17,17 -11,0 -17,-6 -17,-17l0 -318c0,-10 6,-16 17,-16 11,0 17,6 17,16l0 135 188 0 0 -135c0,-10 5,-16 17,-16 10,0 16,6 16,16l0 318z"/>
  <path id="4" fill="#F08519" fill-rule="nonzero" d="M2240 1962c0,11 -5,17 -16,17 -11,0 -17,-6 -17,-17l0 -22c-17,26 -41,39 -70,39 -29,0 -52,-9 -68,-27 -17,-18 -26,-45 -26,-81l0 -156c0,-12 6,-17 17,-17 11,0 16,5 16,17l0 156c0,49 21,74 61,74 19,0 35,-6 48,-20 15,-15 22,-35 22,-62l0 -148c0,-12 6,-17 16,-17 12,0 17,5 17,17l0 247z"/>
  <path id="5" fill="#F08519" fill-rule="nonzero" d="M2511 1962c0,11 -5,17 -15,17 -12,0 -18,-6 -18,-17l0 -158c0,-49 -20,-73 -61,-73 -22,0 -40,10 -55,29 -13,17 -20,35 -20,52l0 150c0,11 -6,17 -17,17 -11,0 -16,-6 -16,-17l0 -247c0,-11 5,-16 16,-16 11,0 17,5 17,16l0 26c16,-29 41,-43 75,-43 32,0 57,10 73,31 14,18 21,43 21,75l0 158z"/>
  <path id="6" fill="#234F2D" fill-rule="nonzero" d="M1072 1935c0,30 -8,55 -25,74 -18,21 -43,32 -75,32 -31,0 -58,-8 -79,-25 -11,-8 -16,-17 -16,-25 0,-3 1,-7 4,-10 4,-3 7,-4 12,-4 5,0 9,2 14,6 16,17 38,25 65,25 22,0 38,-7 50,-21 12,-12 17,-30 17,-52l0 -24c-7,13 -18,23 -31,31 -13,7 -26,11 -41,11 -29,0 -52,-11 -71,-33 -20,-24 -29,-55 -29,-95 0,-39 9,-70 28,-93 18,-22 43,-34 73,-34 15,0 29,4 42,12 12,8 22,17 29,29l0 -24c0,-11 5,-17 16,-17 11,0 17,6 17,17l0 220zm-33 -101c0,-33 -7,-58 -20,-77 -13,-17 -30,-26 -51,-26 -20,0 -35,7 -47,22 -14,17 -21,41 -21,72 0,32 7,57 22,74 12,14 27,21 45,21 18,0 34,-7 48,-22 16,-16 24,-38 24,-64z"/>
  <path id="7" fill="#234F2D" fill-rule="nonzero" d="M1278 1714c0,11 -6,16 -17,17 -22,0 -42,11 -60,32 -18,21 -27,46 -27,73l0 126c0,11 -6,16 -17,17 -11,0 -17,-6 -17,-17l0 -247c0,-12 6,-17 17,-17 11,0 17,5 17,17l0 36c26,-35 55,-53 87,-53 11,0 17,5 17,16z"/>
  <path id="8" fill="#234F2D" fill-rule="nonzero" d="M1524 1715c0,2 0,3 -1,5l-92 264c-7,19 -15,33 -24,42 -11,10 -25,15 -44,15l-31 0c-11,0 -16,-5 -16,-16 0,-11 5,-17 16,-17l31 0c10,0 17,-2 22,-7 4,-4 9,-14 15,-29l10 -29 -80 -223c0,-2 -1,-3 -1,-5 0,-5 2,-9 5,-12 4,-3 8,-5 12,-5 7,0 13,4 16,12l66 183 64 -183c3,-8 8,-11 15,-11 4,0 8,1 12,5 3,3 5,6 5,11z"/>
  <path id="9" fill="#234F2D" fill-rule="nonzero" d="M2727 1961c0,12 -5,17 -16,17l-18 0c-47,0 -71,-23 -71,-69l0 -154 -38 0c-11,0 -16,-6 -16,-16 0,-12 5,-18 16,-18l38 0 0 -77c0,-11 5,-16 16,-16 12,0 17,5 17,16l0 77 46 0c11,0 16,6 16,18 0,10 -5,16 -16,16l-46 0 0 154c0,13 3,23 9,29 6,5 16,7 29,7l18 0c11,0 16,6 16,16z"/>
  <path id="10" fill="#234F2D" fill-rule="nonzero" d="M3014 1897c0,3 -3,9 -8,18 -25,42 -60,64 -105,64 -36,0 -65,-13 -87,-39 -22,-25 -32,-59 -32,-100 0,-41 10,-74 31,-101 22,-27 52,-41 88,-41 34,0 61,12 82,38 19,21 28,45 28,72 0,25 -12,37 -37,37l-159 0c0,32 9,57 26,75 15,17 35,25 60,25 36,0 63,-18 81,-55 3,-6 8,-9 14,-9 5,0 9,1 12,5 4,3 6,6 6,11zm-36 -91c0,-18 -7,-34 -20,-49 -15,-17 -34,-26 -57,-26 -24,0 -43,8 -58,25 -13,14 -22,33 -26,56l147 0c9,0 14,-2 14,-6z"/>
  <path id="11" fill="#234F2D" fill-rule="nonzero" d="M3215 1714c0,11 -6,16 -17,17 -22,0 -42,11 -60,32 -18,21 -27,46 -27,73l0 126c0,11 -6,16 -17,17 -11,0 -17,-6 -17,-17l0 -247c0,-12 6,-17 17,-17 11,0 17,5 17,17l0 36c26,-35 55,-53 87,-53 11,0 17,5 17,16z"/>
  <path id="12" fill="none" fill-rule="nonzero" stroke="#F08519" stroke-width="6.31585" d="M257 1962c0,11 -5,17 -16,17 -11,0 -17,-6 -17,-17l0 -150 -188 0 0 150c0,11 -5,17 -16,17 -11,0 -17,-6 -17,-17l0 -318c0,-10 6,-16 17,-16 11,0 16,6 16,16l0 135 188 0 0 -135c0,-10 6,-16 18,-16 10,0 15,6 15,16l0 318z"/>
  <path id="13" fill="none" fill-rule="nonzero" stroke="#F08519" stroke-width="6.31585" d="M532 1962c0,11 -5,17 -16,17 -11,0 -17,-6 -17,-17l0 -22c-18,26 -41,39 -71,39 -29,0 -51,-9 -67,-27 -17,-18 -26,-45 -26,-81l0 -156c0,-12 5,-17 16,-17 12,0 17,5 17,17l0 156c0,49 20,74 60,74 20,0 36,-6 49,-20 15,-15 22,-35 22,-62l0 -148c0,-12 5,-17 16,-17 11,0 17,5 17,17l0 247z"/>
  <path id="14" fill="none" fill-rule="nonzero" stroke="#F08519" stroke-width="6.31585" d="M803 1962c0,11 -5,17 -16,17 -11,0 -17,-6 -17,-17l0 -158c0,-49 -21,-73 -62,-73 -21,0 -39,10 -54,29 -14,17 -20,35 -20,52l0 150c0,11 -6,17 -17,17 -11,0 -17,-6 -17,-17l0 -247c0,-11 6,-16 17,-16 11,0 17,5 17,16l0 26c16,-29 41,-43 74,-43 33,0 57,10 73,31 15,18 22,43 22,75l0 158z"/>
  <path id="15" fill="none" fill-rule="nonzero" stroke="#F08519" stroke-width="6.31585" d="M1966 1962c0,11 -6,17 -16,17 -12,0 -17,-6 -17,-17l0 -150 -188 0 0 150c0,11 -6,17 -17,17 -11,0 -17,-6 -17,-17l0 -318c0,-10 6,-16 17,-16 11,0 17,6 17,16l0 135 188 0 0 -135c0,-10 5,-16 17,-16 10,0 16,6 16,16l0 318z"/>
  <path id="16" fill="none" fill-rule="nonzero" stroke="#F08519" stroke-width="6.31585" d="M2240 1962c0,11 -5,17 -16,17 -11,0 -17,-6 -17,-17l0 -22c-17,26 -41,39 -70,39 -29,0 -52,-9 -68,-27 -17,-18 -26,-45 -26,-81l0 -156c0,-12 6,-17 17,-17 11,0 16,5 16,17l0 156c0,49 21,74 61,74 19,0 35,-6 48,-20 15,-15 22,-35 22,-62l0 -148c0,-12 6,-17 16,-17 12,0 17,5 17,17l0 247z"/>
  <path id="17" fill="none" fill-rule="nonzero" stroke="#F08519" stroke-width="6.31585" d="M2511 1962c0,11 -5,17 -15,17 -12,0 -18,-6 -18,-17l0 -158c0,-49 -20,-73 -61,-73 -22,0 -40,10 -55,29 -13,17 -20,35 -20,52l0 150c0,11 -6,17 -17,17 -11,0 -16,-6 -16,-17l0 -247c0,-11 5,-16 16,-16 11,0 17,5 17,16l0 26c16,-29 41,-43 75,-43 32,0 57,10 73,31 14,18 21,43 21,75l0 158z"/>
  <path id="18" fill="none" fill-rule="nonzero" stroke="#234F2D" stroke-width="6.31585" d="M1072 1935c0,30 -8,55 -25,74 -18,21 -43,32 -75,32 -31,0 -58,-8 -79,-25 -11,-8 -16,-17 -16,-25 0,-3 1,-7 4,-10 4,-3 7,-4 12,-4 5,0 9,2 14,6 16,17 38,25 65,25 22,0 38,-7 50,-21 12,-12 17,-30 17,-52l0 -24c-7,13 -18,23 -31,31 -13,7 -26,11 -41,11 -29,0 -52,-11 -71,-33 -20,-24 -29,-55 -29,-95 0,-39 9,-70 28,-93 18,-22 43,-34 73,-34 15,0 29,4 42,12 12,8 22,17 29,29l0 -24c0,-11 5,-17 16,-17 11,0 17,6 17,17l0 220zm-33 -101c0,-33 -7,-58 -20,-77 -13,-17 -30,-26 -51,-26 -20,0 -35,7 -47,22 -14,17 -21,41 -21,72 0,32 7,57 22,74 12,14 27,21 45,21 18,0 34,-7 48,-22 16,-16 24,-38 24,-64z"/>
  <path id="19" fill="none" fill-rule="nonzero" stroke="#234F2D" stroke-width="6.31585" d="M1278 1714c0,11 -6,16 -17,17 -22,0 -42,11 -60,32 -18,21 -27,46 -27,73l0 126c0,11 -6,16 -17,17 -11,0 -17,-6 -17,-17l0 -247c0,-12 6,-17 17,-17 11,0 17,5 17,17l0 36c26,-35 55,-53 87,-53 11,0 17,5 17,16z"/>
  <path id="20" fill="none" fill-rule="nonzero" stroke="#234F2D" stroke-width="6.31585" d="M1524 1715c0,2 0,3 -1,5l-92 264c-7,19 -15,33 -24,42 -11,10 -25,15 -44,15l-31 0c-11,0 -16,-5 -16,-16 0,-11 5,-17 16,-17l31 0c10,0 17,-2 22,-7 4,-4 9,-14 15,-29l10 -29 -80 -223c0,-2 -1,-3 -1,-5 0,-5 2,-9 5,-12 4,-3 8,-5 12,-5 7,0 13,4 16,12l66 183 64 -183c3,-8 8,-11 15,-11 4,0 8,1 12,5 3,3 5,6 5,11z"/>
  <path id="21" fill="none" fill-rule="nonzero" stroke="#234F2D" stroke-width="6.31585" d="M2727 1961c0,12 -5,17 -16,17l-18 0c-47,0 -71,-23 -71,-69l0 -154 -38 0c-11,0 -16,-6 -16,-16 0,-12 5,-18 16,-18l38 0 0 -77c0,-11 5,-16 16,-16 12,0 17,5 17,16l0 77 46 0c11,0 16,6 16,18 0,10 -5,16 -16,16l-46 0 0 154c0,13 3,23 9,29 6,5 16,7 29,7l18 0c11,0 16,6 16,16z"/>
  <path id="22" fill="none" fill-rule="nonzero" stroke="#234F2D" stroke-width="6.31585" d="M3014 1897c0,3 -3,9 -8,18 -25,42 -60,64 -105,64 -36,0 -65,-13 -87,-39 -22,-25 -32,-59 -32,-100 0,-41 10,-74 31,-101 22,-27 52,-41 88,-41 34,0 61,12 82,38 19,21 28,45 28,72 0,25 -12,37 -37,37l-159 0c0,32 9,57 26,75 15,17 35,25 60,25 36,0 63,-18 81,-55 3,-6 8,-9 14,-9 5,0 9,1 12,5 4,3 6,6 6,11zm-36 -91c0,-18 -7,-34 -20,-49 -15,-17 -34,-26 -57,-26 -24,0 -43,8 -58,25 -13,14 -22,33 -26,56l147 0c9,0 14,-2 14,-6z"/>
  <path id="23" fill="none" fill-rule="nonzero" stroke="#234F2D" stroke-width="6.31585" d="M3215 1714c0,11 -6,16 -17,17 -22,0 -42,11 -60,32 -18,21 -27,46 -27,73l0 126c0,11 -6,16 -17,17 -11,0 -17,-6 -17,-17l0 -247c0,-12 6,-17 17,-17 11,0 17,5 17,17l0 36c26,-35 55,-53 87,-53 11,0 17,5 17,16z"/>
  <path fill="#234F2D" stroke="#FEFEFE" stroke-width="16.577" d="M1156 599c-56,-43 -143,-116 -156,-153 -19,-55 -94,-57 -99,10 -4,48 86,171 144,244 27,-37 64,-71 111,-101z"/>
  <path fill="none" stroke="#234F2D" stroke-width="41.4426" d="M1609 21c195,0 354,128 354,287 0,65 -27,125 -72,173 -84,-26 -180,-41 -282,-41 -102,0 -198,15 -282,41 -45,-48 -71,-108 -71,-173 0,-159 158,-287 353,-287z"/>
  <path fill="#234F2D" stroke="#FEFEFE" stroke-width="16.577" d="M2060 591c55,-44 143,-116 156,-153 19,-55 94,-57 99,10 3,48 -86,171 -144,244 -27,-37 -65,-72 -111,-101z"/>
  <g>
  </g>
  <g clip-path="url(#id0)">
   <g>
    <rect fill="#F08519" stroke="#332C2B" stroke-width="16.577" x="303" y="326" width="2388" height="884"/>
   </g>
  </g>
  <path fill="none" stroke="#234F2D" stroke-width="41.4426" d="M1609 503c330,0 598,155 598,345 0,61 -28,118 -76,168 -12,-17 -28,-36 -43,-50 -13,-14 -40,-39 -63,-39 -54,0 -146,154 -171,199 -156,41 -302,34 -476,0 -6,-28 -117,-199 -166,-199 -33,0 -78,46 -115,99 -54,-52 -85,-113 -85,-178 0,-190 267,-345 597,-345z"/>
  <path fill="#F08519" stroke="#FEFEFE" stroke-width="20.7213" d="M1033 1182c0,39 48,109 66,137 21,31 70,95 113,95 33,0 78,-58 98,-85 34,-46 49,-77 74,-114 171,46 316,42 472,0 7,28 117,199 165,199 46,0 90,-59 114,-94 88,-124 84,-155 0,-280 -13,-18 -31,-39 -47,-55 -13,-13 -40,-39 -63,-39 -54,0 -146,154 -171,199 -156,41 -302,35 -476,0 -6,-28 -117,-199 -166,-199 -65,0 -179,182 -179,236z"/>
 </g>
</svg>
